<svg id="Capa_1" data-name="Capa 1" xmlns="http://www.w3.org/2000/svg" viewBox="0 0 206 209.94"><title>build</title><path d="M227.55,233H50.49c-1.66-1.33-3.18-2.83-2.67-5.16.77-3.62,3.86-3.27,6.69-3.38V82.58c0-4.22,1.32-5.52,5.56-5.52H118.9V74.68c0-15.31,0-30.61,0-45.91,0-2.51.61-4.45,2.86-5.71h82.9c2.24,1.26,2.85,3.2,2.85,5.71q-.08,63.92,0,127.85v2.46a4.41,4.41,0,0,0,.66.16l9.85,0c4.34,0,5.59,1.28,5.59,5.69v59.63a25.82,25.82,0,0,1,3.08,0,3.92,3.92,0,0,1,2.93,6.26A17.41,17.41,0,0,1,227.55,233ZM62.73,85.56V224.4h56v-7.92h-4.18c-2.69,0-5.37.07-8,0a4,4,0,0,1-4.09-3.9,4.11,4.11,0,0,1,4.1-4.1c.81-.06,1.61,0,2.42,0h10V164.74c0-4.13,1.33-5.48,5.39-5.48h26.65V85.56ZM199.31,65.37H192c-6.71,0-13.41,0-20.12,0-3.52,0-5.34-2.53-4.32-5.77.54-1.71,2.08-2.67,4.48-2.67q12.57,0,25.14,0h2.12V48.25H184.92c-.47,0-.94,0-1.41,0-2.86-.13-4.61-1.64-4.63-4s1.73-4,4.56-4c4.43-.07,8.85,0,13.28,0h2.56V31.24H127.09V77.06h26.28c4.53,0,5.77,1.22,5.77,5.71v76.37h40.08V150.2h-2.57c-8.18,0-16.36,0-24.54,0-3,0-4.83-1.52-4.89-3.93s1.8-4,4.91-4.11c.47,0,.94,0,1.41,0h25.69v-9.06c-8.94,0-17.73,0-26.51,0a9.82,9.82,0,0,1-2.77-.31,3.64,3.64,0,0,1-2.7-3.62,3.7,3.7,0,0,1,2.71-3.81,8.5,8.5,0,0,1,2.57-.3q12.27,0,24.54,0h2.16v-8.66h-25.9a16.07,16.07,0,0,1-2.6-.14c-3.21-.5-4.43-3.72-2.62-6.41,1.1-1.64,2.59-1.91,4.31-1.91H197c.77,0,1.54-.07,2.31-.11V99.22H197q-12.16,0-24.34,0a9.16,9.16,0,0,1-2.77-.34,3.9,3.9,0,0,1,0-7.36,8.81,8.81,0,0,1,2.77-.33c8.18,0,16.36,0,24.54,0h2.11V82.1h-2.49q-12.17,0-24.34,0c-3.33,0-5.21-1.49-5.23-4s1.89-4,5.19-4.06h1.41q11.56,0,23.14,0c.77,0,1.54-.07,2.36-.1ZM155.11,224.5c0-8.21,0-16.24,0-24.27a1.26,1.26,0,0,0-.54-.95c-2.57-1.46-5.18-2.86-7.92-4.35a16.84,16.84,0,0,1-9.16,4.77A17.43,17.43,0,0,1,127.11,198V224.5Zm60.28-26.58a16.46,16.46,0,0,1-19.7-3.08c-2.37,1.42-4.46,2.86-6.71,3.95-1.18.57-1.73,1-1.71,2.43.09,7.18,0,14.36,0,21.54,0,.57.07,1.14.11,1.68h28Zm-44.22-2.8c-2.15,1.25-4.33,2.67-6.65,3.8a1.92,1.92,0,0,0-1.38,2c.05,7.45,0,14.9,0,22.35a7.8,7.8,0,0,0,.14,1.06h15.95c0-8,0-15.86,0-23.71a2.07,2.07,0,0,0-.89-1.49C176,197.75,173.51,196.43,171.17,195.12Zm4.12-27.7c0,5.83-.16,11.52.06,17.2a7.82,7.82,0,0,0,7.77,7.26c4,.09,7.84-2.87,8-6.92.31-5.8.08-11.63.08-17.54Zm40.16,0h-16c0,5.71-.12,11.27,0,16.83a8,8,0,0,0,16,0C215.57,178.73,215.45,173.17,215.45,167.46Zm-72.45,0H127c0,5.71-.12,11.28,0,16.84a8,8,0,0,0,15.94.16C143.15,178.85,143,173.22,143,167.47Zm8.13-.06c0,5.79-.13,11.42.05,17a7.87,7.87,0,0,0,7.62,7.43c4,.17,7.94-2.7,8.19-6.75.35-5.86.09-11.76.09-17.72Z" transform="translate(-36 -23.06)" fill="#074650"/><path d="M36,227.36a14.93,14.93,0,0,1,1.35-1.69,4,4,0,0,1,5.74.26c1.6,1.83,1.21,4.61-.9,6.39-.3.25-.64.46-1,.68H38.82L36,229.37Z" transform="translate(-36 -23.06)" fill="#074650"/><path d="M236.81,233a18.77,18.77,0,0,1-2.24-2.41,3.8,3.8,0,0,1,.8-5.05,4,4,0,0,1,5.15,0,3.82,3.82,0,0,1,.89,5,19.56,19.56,0,0,1-2.19,2.47Z" transform="translate(-36 -23.06)" fill="#074650"/><path d="M36,229.37,38.82,233H36Z" transform="translate(-36 -23.06)" fill="#074650"/><path d="M86.7,130.39c0,1.34,0,2.69,0,4-.13,2.58-1.61,4.16-4.16,4.26s-5.23.1-7.84,0a4,4,0,0,1-4-4.14c-.09-2.75-.1-5.5,0-8.25a4,4,0,0,1,4.13-4.06c2.54-.1,5.09-.09,7.64,0s4.16,1.67,4.27,4.35C86.75,127.84,86.7,129.11,86.7,130.39Z" transform="translate(-36 -23.06)" fill="#074650"/><path d="M114.87,130.46c0,1.34,0,2.69,0,4a4,4,0,0,1-4,4.18c-2.68.11-5.37.11-8,0a3.94,3.94,0,0,1-4-4c-.11-2.82-.11-5.65,0-8.46a3.92,3.92,0,0,1,4-4c2.68-.11,5.37-.11,8,0a4,4,0,0,1,4,4c.1,1.4,0,2.82,0,4.23Z" transform="translate(-36 -23.06)" fill="#074650"/><path d="M86.7,159c0,1.27,0,2.55,0,3.82-.1,2.81-1.61,4.39-4.37,4.47-2.48.07-5,.08-7.45,0a4,4,0,0,1-4.24-4.16c-.1-2.74-.1-5.5,0-8.25a3.92,3.92,0,0,1,3.94-4c2.67-.13,5.36-.12,8,0A4,4,0,0,1,86.68,155c.08,1.34,0,2.69,0,4Z" transform="translate(-36 -23.06)" fill="#074650"/><path d="M86.7,187.69c0,1.34.06,2.68,0,4a4,4,0,0,1-4,4.18q-4,.17-8,0a3.92,3.92,0,0,1-4-4c-.11-2.74-.12-5.5,0-8.25s1.67-4.16,4.57-4.21c2.21,0,4.43,0,6.64,0,3.19,0,4.64,1.45,4.8,4.65C86.75,185.27,86.7,186.48,86.7,187.69Z" transform="translate(-36 -23.06)" fill="#074650"/><path d="M134.87,110.1c-1,0-2-.08-3,0-3.11.3-4.71-2.16-4.85-4.47a80.05,80.05,0,0,1,0-8,3.93,3.93,0,0,1,4-4c2.68-.11,5.37-.11,8.05,0a3.92,3.92,0,0,1,4,4c.1,2.62.11,5.24,0,7.86-.09,2.3-1.71,4.94-4.93,4.62A31.23,31.23,0,0,0,134.87,110.1Z" transform="translate(-36 -23.06)" fill="#074650"/><path d="M86.69,101.65c0,1.34.08,2.69,0,4a4.5,4.5,0,0,1-4.7,4.42c-2.21,0-4.43,0-6.64,0a4.45,4.45,0,0,1-4.68-4.43c-.13-2.68-.11-5.37,0-8a3.93,3.93,0,0,1,4-4c2.68-.11,5.37-.11,8,0a4,4,0,0,1,4,4C86.77,99,86.69,100.3,86.69,101.65Z" transform="translate(-36 -23.06)" fill="#074650"/><path d="M106.73,110.1c-1,0-2,0-3,0-3,0-4.78-1.69-4.9-4.63-.1-2.55-.09-5.1,0-7.65A4,4,0,0,1,103,93.61q3.82-.14,7.64,0c2.64.09,4.15,1.7,4.22,4.4.06,2.42.07,4.84,0,7.25-.09,3.08-1.88,4.8-4.91,4.84C108.87,110.11,107.8,110.1,106.73,110.1Z" transform="translate(-36 -23.06)" fill="#074650"/><path d="M98.8,212.4a4,4,0,0,1-3.9,4,4,4,0,1,1-.1-8A4,4,0,0,1,98.8,212.4Z" transform="translate(-36 -23.06)" fill="#074650"/><path d="M171.55,40.28a4,4,0,0,1-.49,7.89,4,4,0,1,1,.49-7.89Z" transform="translate(-36 -23.06)" fill="#074650"/></svg>