<svg id="Capa_1" data-name="Capa 1" xmlns="http://www.w3.org/2000/svg" viewBox="0 0 23 22.6"><title>more</title><path d="M130,124v-1.32a.78.78,0,0,0,0-.21,10.56,10.56,0,0,1,1.32-4.41,11.21,11.21,0,0,1,2.68-3.29,12.5,12.5,0,0,1,2.43-1.58A11.65,11.65,0,0,1,149.26,115a10.88,10.88,0,0,1,2.42,3.06A10.71,10.71,0,0,1,153,124.5a10.34,10.34,0,0,1-1.48,4.47,11.53,11.53,0,0,1-2.53,3,12,12,0,0,1-2.74,1.71,11,11,0,0,1-2.7.8c-.43.07-.87.12-1.3.18h-1.37l-.17,0a11.64,11.64,0,0,1-4.43-1.23,11.41,11.41,0,0,1-2.54-1.76,11.55,11.55,0,0,1-2.48-3.25,9.66,9.66,0,0,1-1-3C130.13,124.9,130.08,124.46,130,124Zm11.5-10.34a10,10,0,0,0-5.27,1.49,9.87,9.87,0,0,0-2.63,2.4,8.9,8.9,0,0,0-1.84,4.47,9.72,9.72,0,0,0,4.82,9.7,10.62,10.62,0,0,0,2.42,1,10,10,0,0,0,7.63-1.09,9.4,9.4,0,0,0,2.6-2.26,9,9,0,0,0,2-4.7,9.28,9.28,0,0,0-2.33-7.67,9.62,9.62,0,0,0-2.55-2.07A10,10,0,0,0,141.52,113.67Z" transform="translate(-130.02 -112.06)" fill="#074650"/><path d="M140.7,122.55V121c0-.72,0-1.43,0-2.14a.8.8,0,0,1,.83-.86.81.81,0,0,1,.82.86v3.72h3.73a.91.91,0,0,1,.72.26.8.8,0,0,1-.57,1.34h-3.88v.27c0,1.16,0,2.31,0,3.47a.81.81,0,0,1-1.09.79.8.8,0,0,1-.55-.83c0-1.14,0-2.27,0-3.4v-.3H137a.92.92,0,0,1-.74-.29.75.75,0,0,1-.14-.82.78.78,0,0,1,.72-.49c.39,0,.77,0,1.15,0h2.74Z" transform="translate(-130.02 -112.06)" fill="#074650"/></svg>