<svg id="Capa_1" data-name="Capa 1" xmlns="http://www.w3.org/2000/svg" viewBox="0 0 39.9 24.73"><title>movil</title><path d="M175,139.35c-.29.82-1,1-1.8.89a15,15,0,0,1-.34,1.6,4.55,4.55,0,0,1-1.74,2.38,4.71,4.71,0,0,1-3.63,1,5,5,0,0,1-3.06-1.67,4.92,4.92,0,0,1-1.21-3.12.54.54,0,0,0,0-.12H148.83a13.32,13.32,0,0,1-.35,1.6,4.48,4.48,0,0,1-1.72,2.35,4.69,4.69,0,0,1-3.62,1,4.92,4.92,0,0,1-3.62-2.43,5.5,5.5,0,0,1-.69-2.5c-.51,0-1,0-1.51,0a1.89,1.89,0,0,1-2.22-2c0-2.75,0-5.49,0-8.23,0-.7.15-.84.94-.84h18.43v-.45c0-2,0-4.1,0-6.15a3,3,0,0,1,.19-1,1.78,1.78,0,0,1,1.84-1h8.42c.44,0,.7.21.7.55s-.22.55-.71.57h-.25c.15.4.28.77.42,1.14.66,1.7,1.37,3.38,2,5.1.21.61.57.78,1.21.87,1.7.23,3.39.52,5.07.83a2,2,0,0,1,1.68,1.46Zm-20.53-9h-18.2c0,2.72,0,5.4,0,8.08,0,.47.29.7.81.71h1.64a.3.3,0,0,0,.35-.27,4.7,4.7,0,0,1,1.64-2.41,5,5,0,0,1,6.25.07,4.68,4.68,0,0,1,1.63,2.57l.21,0h14.3c.22,0,.28-.08.33-.26a4.66,4.66,0,0,1,1.63-2.41,5,5,0,0,1,6.25,0,4.66,4.66,0,0,1,1.6,2.43.39.39,0,0,0,.23.18c.21,0,.43,0,.65,0V136h-.26a2,2,0,0,1-2.21-2c0-.52,0-1,0-1.55s.18-.74.84-.75h1.61c.06-.58-.1-.79-.65-.89-1.14-.19-2.28-.41-3.42-.58a30.58,30.58,0,0,0-3.43-.42c-2.22-.06-4.44,0-6.66,0a1.93,1.93,0,0,1-2-1.73c0-1.42,0-2.84,0-4.26,0-.63.17-.78.88-.78h5.41c-.16-.43-.29-.82-.45-1.2,0-.07-.2-.13-.31-.13h-6.7c-.5,0-.71.19-.77.63a2.26,2.26,0,0,0,0,.45q0,7.05,0,14.1a2.59,2.59,0,0,1,0,.56.48.48,0,0,1-.53.38.49.49,0,0,1-.55-.39,3.08,3.08,0,0,1,0-.53c0-2,0-4.05,0-6.08Zm-6.88,9.95a3.67,3.67,0,0,0-.68-2.13,4,4,0,0,0-2.76-1.62,3.51,3.51,0,0,0-2,.4,3.62,3.62,0,0,0-2,2.36,3.69,3.69,0,0,0,2.06,4.41,3.53,3.53,0,0,0,3.52-.21A3.73,3.73,0,0,0,147.59,140.28Zm20.52-3.79a4.71,4.71,0,0,0-2.4,1,3.73,3.73,0,0,0,1.42,6.42,3.47,3.47,0,0,0,3.29-.62,4.23,4.23,0,0,0,1.05-1.19,3.54,3.54,0,0,0-.15-3.85A4.1,4.1,0,0,0,168.11,136.49ZM166,128.55c0-.11,0-.18-.08-.24-.5-1.31-1-2.62-1.51-3.94-.09-.23-.2-.27-.44-.27H159.1l-.31,0c0,.1,0,.18,0,.26,0,1.11,0,2.22,0,3.34,0,.65.2.82.94.82H166Zm6.49,4.32c0,.47,0,.92,0,1.37a.51.51,0,0,0,.53.48,6,6,0,0,0,.74,0v-1.86Z" transform="translate(-135.1 -120.51)" fill="#074650"/><path d="M145.37,131.65h6.94c.54,0,.71.11.79.45a.63.63,0,0,1-.63.75H138.52a.86.86,0,0,1-.8-.29.55.55,0,0,1,.41-.89,3.1,3.1,0,0,1,.43,0Z" transform="translate(-135.1 -120.51)" fill="#074650"/><path d="M162,131.65h3.54c.3,0,.57,0,.7.34a.57.57,0,0,1-.25.74.7.7,0,0,1-.38.11h-7.28a.64.64,0,0,1-.67-.59c0-.39.2-.59.68-.59Z" transform="translate(-135.1 -120.51)" fill="#074650"/><path d="M168.8,131.66h.63a.56.56,0,0,1,.57.59.68.68,0,0,1-.6.59h-1.2a.65.65,0,0,1-.6-.61.54.54,0,0,1,.58-.57Z" transform="translate(-135.1 -120.51)" fill="#074650"/><path d="M146.25,140.45a2.44,2.44,0,0,1-3.71,1.92,2.37,2.37,0,0,1-.93-3.13,2.32,2.32,0,0,1,2-1.37c.47,0,.7.14.74.53a.66.66,0,0,1-.65.65,1.26,1.26,0,1,0,1.34,1.46.32.32,0,0,0,0-.14c0-.41.28-.63.64-.6S146.26,140,146.25,140.45Z" transform="translate(-135.1 -120.51)" fill="#074650"/><path d="M165.72,140.39a2.48,2.48,0,0,1,1.86-2.46,2,2,0,0,1,.54-.06.53.53,0,0,1,.62.5.65.65,0,0,1-.46.65c-.15,0-.31,0-.46.07a1.25,1.25,0,0,0-.7,1.93,1.26,1.26,0,0,0,1.64.42,1.32,1.32,0,0,0,.68-.93c0-.08,0-.16,0-.24a.56.56,0,0,1,.62-.5.5.5,0,0,1,.52.58,3.55,3.55,0,0,1-.36,1.2,2.47,2.47,0,0,1-3.6.66A2.3,2.3,0,0,1,165.72,140.39Z" transform="translate(-135.1 -120.51)" fill="#074650"/></svg>