<svg id="Capa_1" data-name="Capa 1" xmlns="http://www.w3.org/2000/svg" viewBox="0 0 213.9 205.1"><title>new</title><path d="M139.45,233.1c-5.09-1.32-8.76-4.51-11.82-8.58-2.22-2.94-4.57-5.79-6.93-8.63a5,5,0,0,0-5.79-1.72c-4.28,1.44-8.49,3.09-12.79,4.46a42.7,42.7,0,0,1-8.06,1.9c-6.08.69-10.74-2.73-12.28-9.24-1.13-4.79-1.65-9.72-2.44-14.59,0-.19,0-.4-.06-.59-.73-4.5-2.12-5.69-6.7-6.29-5.1-.67-10.19-1.38-15.24-2.32-7.68-1.42-11.63-7-9.74-14.47,1.19-4.68,3.25-9.15,5-13.67,2.42-6.11,2.19-7.18-3.07-11.14-2.73-2.06-5.64-3.91-8.27-6.09a27.66,27.66,0,0,1-5-5.21c-3-4.15-3-8.6,0-12.68a36,36,0,0,1,6-5.79c3.21-2.67,6.56-5.15,9.85-7.73a4.43,4.43,0,0,0,1.56-5.52c-1.45-3.73-3-7.44-4.37-11.18a44,44,0,0,1-2-6.29c-1.46-7,2.37-12.7,9.5-14,5.11-1,10.28-1.68,15.44-2.34,4.85-.63,6.18-1.78,6.9-6.52s1.17-9.56,2.28-14.21c2-8.41,7.45-11.65,15.89-9.4,4.87,1.29,9.56,3.27,14.33,5,2.42.86,4.88,1.94,7.32.18a17.38,17.38,0,0,0,3.09-2.84c2.54-3,4.81-6.31,7.49-9.21a27,27,0,0,1,5.94-4.67,10,10,0,0,1,11.47.36,43.16,43.16,0,0,1,7,6.24c2.72,3,5.12,6.21,7.63,9.35a4.23,4.23,0,0,0,4.89,1.48c3.22-1,6.38-2.2,9.59-3.21,3.4-1.08,6.79-2.2,10.26-3a11.4,11.4,0,0,1,13.92,9c1,4.82,1.66,9.72,2.41,14.59.81,5.18,1.76,6.07,7,6.91,5.74.91,11.52,1.66,17.14,3a10.2,10.2,0,0,1,7.82,12.76c-1,4.31-2.9,8.43-4.41,12.62-.7,2-1.48,3.86-2.11,5.83a4.05,4.05,0,0,0,1.3,4.71q4,3.22,8,6.42c1.9,1.49,3.89,2.88,5.71,4.45A15.61,15.61,0,0,1,248,129v3.2c-1.15,2.16-2,4.59-3.54,6.4-1.85,2.14-4.33,3.76-6.57,5.57-2.77,2.24-5.58,4.43-8.35,6.67a4,4,0,0,0-1.31,4.7c.62,2,1.41,3.88,2.11,5.82,1.5,4.2,3.38,8.31,4.41,12.62a10.26,10.26,0,0,1-7.8,12.79,122.84,122.84,0,0,1-15.13,2.68c-7.25.88-8.34,1.73-9.29,8.79,0,.27,0,.54-.08.8-.91,4.76-1.42,9.65-2.86,14.26-1.68,5.39-6.87,8.14-12.47,7.1a79.94,79.94,0,0,1-9.92-2.7c-3.21-1-6.31-2.39-9.48-3.52a4.9,4.9,0,0,0-5.72,1.38c-2.54,3-5.08,5.89-7.46,9a23.22,23.22,0,0,1-11.84,8.6ZM225.89,84.63c-.62-.59-1.17-1.47-2-1.81a17.31,17.31,0,0,0-4.1-1.07c-4.54-.71-9.11-1.29-13.65-2-6-1-11.4-5.36-12.35-12-.6-4.22-1.35-8.42-1.92-12.65-.81-5.93-2.12-6.73-7.8-4.61-4.17,1.56-8.31,3.21-12.52,4.63-7.72,2.58-12.49,1.24-17.74-4.81-3.33-3.84-6.54-7.78-10-11.52-2.21-2.39-3.37-2.4-5.55,0-3.43,3.74-6.64,7.69-10,11.52-5.34,6.14-10.07,7.46-17.91,4.82-4.86-1.64-9.59-3.64-14.46-5.25-3.48-1.15-4.25-.59-5.21,2.86-.24.84-.37,1.7-.54,2.55-.9,4.74-1.67,9.52-2.73,14.23-1.28,5.66-5.16,8.9-10.78,10.19-1.84.42-3.73.6-5.6.93Q64.44,81.73,57.77,83c-1.45.26-1.83,1.27-1.6,2.54A14.37,14.37,0,0,0,57,88.38c1.9,4.6,4.1,9.1,5.75,13.78,2.4,6.86.16,12.32-5.79,16.51a150.9,150.9,0,0,0-11.8,9.47c-2.08,1.8-2.09,3.09,0,4.86,4,3.39,8.16,6.56,12.31,9.77s6.89,7,6.05,12.3a51,51,0,0,1-2.74,9.35c-1.32,3.6-3,7.07-4.4,10.64-.64,1.64-.1,2.88,1.79,3.31,1.51.34,3,.83,4.53,1.07,4.54.72,9.12,1.22,13.64,2.05,4.06.75,7.75,2.49,9.57,6.37A48,48,0,0,1,89,197.24c.73,3.1.87,6.34,1.37,9.5.82,5.26,2.06,6,7.19,4.19.44-.15.87-.36,1.31-.53,3.59-1.38,7.15-2.84,10.77-4.12,8.34-2.94,13.25-1.65,19,4.94,2.67,3.07,5.25,6.23,7.88,9.34,3.9,4.64,5.32,4.64,9.22,0q4.33-5.13,8.67-10.27c4.35-5.18,9.85-6.61,16.23-4.53,4.61,1.5,9.12,3.31,13.68,5,5.57,2,6.86,1.23,7.65-4.61.58-4.3,1.32-8.57,2-12.85a14.37,14.37,0,0,1,12.08-11.84c4.74-.8,9.51-1.39,14.26-2.06,5.58-.8,6.39-2.1,4.38-7.25-1.61-4.1-3.43-8.13-4.87-12.28-3.18-9.13.28-13.79,7.41-19.1,3.44-2.57,6.87-5.17,10.12-8,1.8-1.53,1.8-2.9,0-4.42-3.25-2.79-6.67-5.41-10.12-8-7.24-5.37-10.58-10.09-7.46-19.08,1.39-4,3.18-7.93,4.72-11.91C225,88,225.31,86.5,225.89,84.63Z" transform="translate(-34.1 -28)" fill="#074650"/><path d="M187.57,135.83c-1.08,3.13-2,5.76-2.89,8.39-.59,1.7-1.12,3.42-1.73,5.11a4.87,4.87,0,0,1-5,3.49c-2.14-.1-3.69-1.41-4.32-3.86-2.46-9.55-4.85-19.12-7.32-28.67-.45-1.78-1.17-3.49-1.68-5.26-1.11-3.83.1-5.4,3.32-6.46,2.76-.92,4.9.79,5.81,4.32q2.19,8.51,4.35,17c.16.64.35,1.27.64,2.32,1.52-4,2.91-7.63,4.27-11.27,1-2.65,3-3.81,5.67-3.27a4.23,4.23,0,0,1,3.36,3.1c1,3,2.06,6.07,3.1,9.09a4.18,4.18,0,0,0,1.17,1.89,19.59,19.59,0,0,0,.83-2.16c1.42-5.55,2.78-11.12,4.22-16.67a9.21,9.21,0,0,1,1.23-2.92,4.36,4.36,0,0,1,5.29-1.27,4.24,4.24,0,0,1,2.52,5.11c-1.53,6.35-3.15,12.67-4.76,19-1.3,5.16-2.63,10.33-4,15.5-.76,3-2.25,4.39-4.68,4.47s-4-1.17-5-4.09C190.53,144.64,189.14,140.49,187.57,135.83Z" transform="translate(-34.1 -28)" fill="#074650"/><path d="M108.57,134.73c0-7.31,0-14.17,0-21,0-3,1.28-4.77,3.68-5.21a4.3,4.3,0,0,1,5.24,3.71,10.53,10.53,0,0,1,.1,1.59c0,11.21,0,22.42,0,33.63a7.18,7.18,0,0,1-1.16,3.89c-1.36,1.92-4.32,2-6.15.47a10.51,10.51,0,0,1-1.47-1.65Q100.06,139,91.36,127.81c-.27-.34-.56-.67-1.26-1.5V129c0,6.14,0,12.28,0,18.42,0,3.11-1,4.49-3.67,5.2-3.21.86-5.75-1.27-5.81-5s0-7.74,0-11.61q0-11.22,0-22.42c0-2,.55-3.68,2.47-4.7s3.68-.41,5.33.6a6,6,0,0,1,1.51,1.59c4.08,5.33,8.1,10.69,12.22,16C104.07,129.56,106.21,131.93,108.57,134.73Z" transform="translate(-34.1 -28)" fill="#074650"/><path d="M136.69,117.23v8.92h8.14c1.83,0,3.66-.05,5.48,0,2.85.11,4.71,1.94,4.66,4.49a4.37,4.37,0,0,1-4.62,4.32c-3.79.09-7.59,0-11.38,0-.72,0-1.45,0-2.28,0v8.92c4,0,7.9,0,11.8,0a17.05,17.05,0,0,1,3,.25,4.18,4.18,0,0,1,3.46,4.1,4.23,4.23,0,0,1-3.42,4.34,10.27,10.27,0,0,1-2.21.26q-8.22,0-16.45,0c-4.12,0-5.78-1.65-5.78-5.71q0-16.59,0-33.19c0-4.08,1.65-5.71,5.75-5.73q8.22,0,16.45,0a9.68,9.68,0,0,1,2.79.37A4.28,4.28,0,0,1,155,113a4,4,0,0,1-3.41,3.91,65.73,65.73,0,0,1-6.88.28C142.05,117.26,139.42,117.23,136.69,117.23Z" transform="translate(-34.1 -28)" fill="#074650"/></svg>