<svg id="Capa_1" data-name="Capa 1" xmlns="http://www.w3.org/2000/svg" viewBox="0 0 115.34 110.73">
    <title>oveja</title>
    <path d="M126.51,74.87a5.38,5.38,0,0,0-.58-2.21A19,19,0,0,0,113.8,61.78c-1.83-.59-1.83-.59-.56-2.06,6.65-7.73,3.8-19-5.87-23.18-1-.41-1.46-.83-1.26-1.95A14.27,14.27,0,0,0,99,19.26c-6-3.34-12-3.45-17.86.44a1.6,1.6,0,0,1-2.13.07A15.53,15.53,0,0,0,68.3,17a14.79,14.79,0,0,0-7.79,2.62c-.59.37-1.09.82-1.86.52a13.57,13.57,0,0,0-9.8-3.37c-10.33.39-17.56,9-15.6,17.91a1.29,1.29,0,0,1-1,1.75,12.32,12.32,0,0,0-3,1.55,5.21,5.21,0,0,0-1.83,1.62,9.3,9.3,0,0,0-1.25,1.26A4.81,4.81,0,0,0,25.22,42c-.1.19-.19.39-.28.58a41.05,41.05,0,0,0-2,4.13,4.45,4.45,0,0,0-.36,1.4,14.86,14.86,0,0,0,3.32,11.69c1.26,1.51,1.25,1.52-.72,2.17-7.8,2.58-13.33,9.7-13.38,17.22,0,2.22.82,3.14,3.15,3.14,3.57,0,7.15.27,10.7-.32a19.32,19.32,0,0,0,10.67-4.87c.52-.47.86-1.21,1.76-1.18a8.67,8.67,0,0,0-.25,2.91L38,98.43c.14,1.77,0,3.58.78,5.26.11.59.16,1.2.32,1.77C43,119.65,58.55,129.39,74,127.17c15.14-2.18,26.26-13.7,27.16-28.59a5.44,5.44,0,0,0,0-1.31l.08-.13c.06-.11,0-6.45,0-6.55l0-.69c0-.49,0-1,0-1.52,0-1.81,0-3.93-.28-6.89a3.54,3.54,0,0,0,.05-.74c0-1.2,0-2.39,0-3.59,0-.36-.16-.84.24-1.06s.79.27,1.09.54a22.21,22.21,0,0,0,17,5.35c1.73,0,3.46.09,5.19.06s2.66-.89,2.75-2.37A9.91,9.91,0,0,0,126.51,74.87ZM37.69,66.49a18.87,18.87,0,0,1-2.55,5.12l-3.2,3c-4.86,2.72-7.78,3.26-14.71,2.74.41-5.8,6.68-11.52,13.23-12,2.06-.14,4.14,0,6.21-.12C37.7,65.23,38,65.52,37.69,66.49Zm57.25,38.17c-2.8,8.68-8.82,14.34-18,17-5.08,1.75-5.08,1.75-5.08-3.23a7.85,7.85,0,0,0,0-1c-.38-3,0-5.06,3.76-6.42,4.41-1.6,6.42-5.55,6.6-10.09a2.39,2.39,0,0,0-2.33-2.69,2.48,2.48,0,0,0-2.61,2.47c-.61,5.17-5.15,8.27-10,6.85A6.4,6.4,0,0,1,63.1,105a6,6,0,0,1-1.72-4.11c-.16-1.7-1.16-2.68-2.64-2.6s-2.33,1.16-2.31,2.87a12.33,12.33,0,0,0,2.84,7.18l3.51,2.84a5.61,5.61,0,0,0,1.27.48c2.52.36,3.06,1.81,2.79,4a38.07,38.07,0,0,0,0,5.55c0,.89-.18,1.32-1.25,1.15a25.05,25.05,0,0,1-10.83-3.92,12.1,12.1,0,0,1-3.54-2.57A23,23,0,0,1,43,101.21a1.35,1.35,0,0,1-.26-.15c-.07-1.75-.13-3.49-.2-5.23l.15-1.64q0-9.51-.09-19c0-1.08,0-2.16-.06-3.25,0-.32.11-.65.17-1-.08-1.52-.15-3-.22-4.58a2.12,2.12,0,0,1,2-2.48,3.74,3.74,0,0,0,1.67-.82c1.78-1.57,3.37-1.32,4.9.3,4.75,2.14,9.57,2.58,14.45.47,1.34-.58,2.57-1.9,3.86-1.93s2.44,1.26,3.69,1.91a17.28,17.28,0,0,0,1.88.78l4.84.73A18.05,18.05,0,0,0,89.47,62c.57-.44.91-.14,1.33.17a11.23,11.23,0,0,0,3.92,2A1.42,1.42,0,0,1,96,65.89c-.09,2.78-.07,5.56-.09,8.33,0,2.08,0,4.15,0,6.23,0,.17,0,.32,0,.47V99.1a3.68,3.68,0,0,0,0,.49A14.41,14.41,0,0,1,94.94,104.66ZM93,57.74a4.71,4.71,0,0,0-2.55-1.56,4.06,4.06,0,0,0-2.58,1.45,11.49,11.49,0,0,1-16-.15c-1.76-1.72-2.87-1.71-4.63,0a11.06,11.06,0,0,1-11.81,2.67A8.62,8.62,0,0,1,51,57.2c-2-1.41-2.76-1.35-4.57.34-5.5,5.14-14.31,4.05-17.66-2.21a7.75,7.75,0,0,1-1.32-5.65v-.14a20.57,20.57,0,0,1,.88-3.3l.21-.53a9.32,9.32,0,0,1,2.11-3.12,4.06,4.06,0,0,0,1-.57,11.58,11.58,0,0,1,6.15-2.23l1.32-1.23a4.07,4.07,0,0,0-.59-2.81A10,10,0,0,1,42,23.6a11.31,11.31,0,0,1,13.13-.13l.7.29a8.38,8.38,0,0,0,3.09,2.32c2-.12,2.86-1.78,4.22-2.75,5.77-3,10.22-2.49,14.84,1.72,1.39,1.28,2.72,1.25,4.16-.15A10,10,0,0,1,88,21.8a9.52,9.52,0,0,1,6.23.43,10.07,10.07,0,0,1,6.37,13.57c-.57,1.32-.79,2.48.26,3.63,1.67.72,3.66.58,5.17,1.73a9.6,9.6,0,0,1,5.78,9.47c-.16,4.48-2.58,7.78-7,9.43A11.13,11.13,0,0,1,93,57.74Zm19.35,19.13A14.09,14.09,0,0,1,104.65,72a9.4,9.4,0,0,1-2.47-4.25c-1.1-2.55-1.07-2.58,2.13-2.34a17.87,17.87,0,0,1,6.23.37c5.7.76,11.09,6.16,11.63,11.73C118.88,77.37,115.59,77.77,112.36,76.87Z" transform="translate(-11.84 -16.75)" fill="#095D6A"/><path d="M101.16,89.9c0-.49,0-1,0-1.52a4.89,4.89,0,0,1,.09.59A3.1,3.1,0,0,1,101.16,89.9Z" transform="translate(-11.84 -16.75)" fill="#095D6A"/><path d="M71.8,73.9a2.57,2.57,0,1,1,5.14-.08,2.9,2.9,0,0,0,3,2.78,3.12,3.12,0,0,0,3.19-2.84c.31-1.85,1.09-2.62,2.49-2.46s2.26,1.26,2.14,3a8,8,0,0,1-15.66,1Z" transform="translate(-11.84 -16.75)" fill="#095D6A"/><path d="M66.47,72c1.73,3.8-1.41,8.52-6.09,9.14a10.18,10.18,0,0,1-3.77-.2c-3.17-1.17-5-3.31-5.44-6.54a2.48,2.48,0,0,1,2.07-3.06,2.53,2.53,0,0,1,2.89,2.36c.35,2,1.36,2.92,3,2.93a3.12,3.12,0,0,0,3.18-2.85C62.81,71.26,64.12,70.7,66.47,72Z" transform="translate(-11.84 -16.75)" fill="#095D6A"/>
</svg>