<svg id="Capa_1" data-name="Capa 1" xmlns="http://www.w3.org/2000/svg" viewBox="0 0 37.16 30.62"><title>party</title><polyline points="15.74 7.37 15.68 14.87 18.72 12.42 21.75 14.87 21.75 7.44" fill="none" stroke="#05353c" stroke-linecap="round" stroke-linejoin="round" stroke-width="0.96"/><path d="M156.62,110.86c-20.66,12.3-36-1.33-36-1.33" transform="translate(-120 -108.42)" fill="none" stroke="#05353c" stroke-linecap="round" stroke-linejoin="round" stroke-width="1.08"/><path d="M149.88,114.08" transform="translate(-120 -108.42)" fill="none" stroke="#05353c" stroke-linecap="round" stroke-linejoin="round" stroke-width="1.08"/><polyline points="3.87 3.88 1.09 10.84 4.81 9.66 6.75 13.04 9.44 6.13" fill="none" stroke="#05353c" stroke-linecap="round" stroke-linejoin="round" stroke-width="0.96"/><polyline points="27.85 6.74 30.67 13.68 32.53 10.26 36.28 11.35 33.42 4.49" fill="none" stroke="#05353c" stroke-linecap="round" stroke-linejoin="round" stroke-width="0.96"/><path d="M156.54,124.51c-20.66,12.3-36-1.33-36-1.33" transform="translate(-120 -108.42)" fill="none" stroke="#05353c" stroke-linecap="round" stroke-linejoin="round" stroke-width="1.08"/><polyline points="11.03 20.23 13.71 28.97 18.41 21.64" fill="none" stroke="#05353c" stroke-linecap="round" stroke-linejoin="round" stroke-width="1.08"/><line x1="24.62" y1="28.73" x2="26.98" y2="20.35" fill="none" stroke="#05353c" stroke-linecap="round" stroke-linejoin="round" stroke-width="1.08"/><line x1="20.05" y1="21.45" x2="24.62" y2="28.73" fill="none" stroke="#05353c" stroke-linecap="round" stroke-linejoin="round" stroke-width="1.08"/><line x1="34.63" y1="25.96" x2="35.04" y2="17.26" fill="none" stroke="#05353c" stroke-linecap="round" stroke-linejoin="round" stroke-width="1.08"/><line x1="28.53" y1="19.9" x2="34.63" y2="25.96" fill="none" stroke="#05353c" stroke-linecap="round" stroke-linejoin="round" stroke-width="1.08"/><polyline points="3.25 16.56 3.07 25.7 9.82 20.2" fill="none" stroke="#05353c" stroke-linecap="round" stroke-linejoin="round" stroke-width="1.08"/><polygon points="13.83 0.54 13.83 1.89 13.83 3.24 13.83 0.54" fill="none" stroke="#05353c" stroke-linecap="round" stroke-linejoin="round" stroke-width="1.08"/><line x1="12.29" y1="1.87" x2="15.27" y2="1.87" fill="none" stroke="#05353c" stroke-linecap="round" stroke-linejoin="round" stroke-width="0.99"/><polygon points="27.03 14.49 27.03 15.84 27.03 17.19 27.03 14.49" fill="none" stroke="#05353c" stroke-linecap="round" stroke-linejoin="round" stroke-width="1.08"/><line x1="25.49" y1="15.82" x2="28.48" y2="15.82" fill="none" stroke="#05353c" stroke-linecap="round" stroke-linejoin="round" stroke-width="0.99"/><polygon points="18.98 27.38 18.98 28.73 18.98 30.08 18.98 27.38" fill="none" stroke="#05353c" stroke-linecap="round" stroke-linejoin="round" stroke-width="1.08"/><line x1="17.45" y1="28.71" x2="20.43" y2="28.71" fill="none" stroke="#05353c" stroke-linecap="round" stroke-linejoin="round" stroke-width="0.99"/><circle cx="23.55" cy="2" r="1.19" fill="none" stroke="#05353c" stroke-linecap="round" stroke-linejoin="round" stroke-width="0.79"/><circle cx="11.03" cy="15.82" r="1.19" fill="none" stroke="#05353c" stroke-linecap="round" stroke-linejoin="round" stroke-width="0.79"/><circle cx="29.62" cy="27.4" r="1.19" fill="none" stroke="#05353c" stroke-linecap="round" stroke-linejoin="round" stroke-width="0.79"/></svg>