<svg id="Capa_1" data-name="Capa 1" xmlns="http://www.w3.org/2000/svg" viewBox="0 0 27.93 32.52"><title>service</title><path d="M135.74,114a.69.69,0,0,1,.33.67c0,3.17,0,6.33,0,9.5a2.72,2.72,0,0,1-1.62,2.62,1,1,0,0,0-.73,1.22,7.61,7.61,0,0,1,0,1.17,2.68,2.68,0,0,0,.3,1.45,2.07,2.07,0,0,1,0,2,.39.39,0,0,0,0,.28,3.75,3.75,0,0,1,.17.7q0,5.4,0,10.8a2.18,2.18,0,0,1-4.29.46,9.18,9.18,0,0,1,0-1.74.46.46,0,0,1,.51-.4.49.49,0,0,1,.47.5c0,.43,0,.87,0,1.3a1.13,1.13,0,0,0,1,1,1.16,1.16,0,0,0,1.25-.64,1.22,1.22,0,0,0,.12-.49V133.65c0-.34-.1-.43-.46-.43h-1.34c-.48,0-.54.05-.54.51v7.17c0,.35-.21.55-.52.55s-.49-.2-.49-.56c0-2.45,0-4.89,0-7.34,0-.27.23-.54.23-.8s-.2-.54-.23-.81a2.27,2.27,0,0,1,.45-1.75.48.48,0,0,0,.06-.3c0-.81,0-1.63,0-2.44a.5.5,0,0,0-.23-.36,3.35,3.35,0,0,1-2.12-3.54c.08-3,0-5.93,0-8.89a.65.65,0,0,1,.35-.66h.33a.73.73,0,0,1,.33.71c0,2,0,4,0,6v.39h1.33v-.4q0-3,0-6a.81.81,0,0,1,.3-.73h.4a.75.75,0,0,1,.32.72q0,3,0,6v.38h1.29v-.37c0-2,0-4.06,0-6.09a.68.68,0,0,1,.34-.67h.33a.66.66,0,0,1,.34.67c0,2,0,4.06,0,6.09v.37h1.33v-.37c0-2,0-4.06,0-6.1a.66.66,0,0,1,.34-.66Zm-6.64,8.12c0,.74,0,1.46,0,2.18a1.8,1.8,0,0,0,1,1.6c.32.19.63.37,1,.53a.65.65,0,0,1,.41.66c0,1,0,2,0,3.08a.72.72,0,0,1-.13.44,1.49,1.49,0,0,0-.39,1.29.32.32,0,0,0,.37.36c.53,0,1.07,0,1.6,0,.21,0,.35-.1.36-.3a1.54,1.54,0,0,0-.35-1.31.65.65,0,0,1-.16-.43c0-1.06,0-2.13,0-3.2a.58.58,0,0,1,.36-.56l1-.56a1.67,1.67,0,0,0,.93-1.32c0-.81,0-1.63,0-2.46Z" transform="translate(-128.07 -114)" fill="#074650"/><path d="M143.57,114c2,.5,2.91,1.94,3.63,3.55a9.82,9.82,0,0,1,.86,5.79,4.54,4.54,0,0,1-3.1,3.82.32.32,0,0,0-.17.25c0,.85,0,1.69,0,2.54a.65.65,0,0,0,.11.32,2.35,2.35,0,0,1,.2,2.36.33.33,0,0,0,0,.22c.06.32.17.63.2,1s0,.87,0,1.3-.19.56-.49.56-.51-.2-.51-.57,0-1,0-1.46c0-.27-.13-.41-.42-.41h-1.51c-.29,0-.42.12-.42.4v10.83a1.17,1.17,0,0,0,2.34,0c0-1.84,0-3.68,0-5.52,0-.48,0-1,0-1.43a.48.48,0,0,1,.5-.55.5.5,0,0,1,.5.53c0,2.36,0,4.72,0,7.08a2.18,2.18,0,0,1-4.34-.05q0-5.46,0-10.92c0-.28.22-.56.22-.84s-.2-.53-.22-.81a2.17,2.17,0,0,1,.44-1.71.51.51,0,0,0,.07-.3v-2.44c0-.15,0-.25-.19-.32a4.37,4.37,0,0,1-3.06-3.65,10.05,10.05,0,0,1,1.85-7.7A4.36,4.36,0,0,1,142.7,114Zm-.45,18.26a5.34,5.34,0,0,0,.8,0c.13,0,.34-.14.36-.24a1.54,1.54,0,0,0-.28-1.3.88.88,0,0,1-.21-.53c0-1.07,0-2.14,0-3.21a.56.56,0,0,1,.49-.61A3.4,3.4,0,0,0,147,123.6a8.93,8.93,0,0,0-1.77-7.42,4.24,4.24,0,0,0-1.05-.92,1.81,1.81,0,0,0-2,0,4.05,4.05,0,0,0-1,.86,9,9,0,0,0-1.91,7.09,3.56,3.56,0,0,0,2.87,3.18.52.52,0,0,1,.43.6c0,1.07,0,2.13,0,3.2a.6.6,0,0,1-.12.42,1.51,1.51,0,0,0-.4,1.29.34.34,0,0,0,.39.37C142.6,132.27,142.86,132.26,143.12,132.26Z" transform="translate(-128.07 -114)" fill="#074650"/><path d="M155.16,114a.8.8,0,0,1,.3.69c0,1.25,0,2.5,0,3.75a2.62,2.62,0,0,1,0,.28.45.45,0,0,1-.48.4.44.44,0,0,1-.49-.39,1.67,1.67,0,0,1,0-.32v-3.3a3.49,3.49,0,0,0-1.45.73,3.78,3.78,0,0,0-1.52,3c0,3.71,0,7.41,0,11.12a1.62,1.62,0,0,0,0,.18h1c.45,0,.62.16.62.6,0,.66,0,1.33,0,2a.9.9,0,0,1-.2.51,1.47,1.47,0,0,0-.29,1.29c0,.1.22.25.35.26.53,0,1.07,0,1.6,0a.34.34,0,0,0,.37-.37,1.52,1.52,0,0,0-.4-1.29.63.63,0,0,1-.12-.42V121c0-.37.19-.59.49-.59s.51.22.51.64c0,3.75,0,7.5,0,11.24a1.39,1.39,0,0,0,.2.71,2.32,2.32,0,0,1,.14,2.2.45.45,0,0,0,0,.28,3.21,3.21,0,0,1,.17.66c0,2.8,0,5.59,0,8.39a2.06,2.06,0,0,1-1.4,1.91,2.25,2.25,0,0,1-2.39-.56,2,2,0,0,1-.56-1.39c0-2.76,0-5.53,0-8.29,0-.29.23-.58.23-.87s-.2-.58-.23-.87a2.18,2.18,0,0,1,.44-1.66.35.35,0,0,0,.07-.2c0-.47,0-1,0-1.46h-1.08c-.41,0-.59-.18-.59-.57,0-3.92,0-7.83,0-11.75a5,5,0,0,1,4.06-4.7l.21-.07Zm-.2,26.36h0V136.2c0-.36-.08-.43-.45-.43s-.94,0-1.41,0-.49.07-.49.46q0,4.07,0,8.13a1.34,1.34,0,0,0,.1.52,1.17,1.17,0,0,0,1.27.67,1.11,1.11,0,0,0,1-1.06C155,143.11,155,141.74,155,140.36Z" transform="translate(-128.07 -114)" fill="#074650"/><path d="M143.09,125.53a2.73,2.73,0,0,1-2.92-2.51,7.93,7.93,0,0,1-.08-1,.49.49,0,0,1,.49-.53.53.53,0,0,1,.51.53,8.88,8.88,0,0,0,.21,1.34,2,2,0,0,0,3.66,0,7.77,7.77,0,0,0,.21-1.28c0-.37.2-.59.51-.59a.52.52,0,0,1,.5.6,4.66,4.66,0,0,1-.44,2A2.69,2.69,0,0,1,143.09,125.53Z" transform="translate(-128.07 -114)" fill="#074650"/></svg>